<?xml version="1.0" encoding="UTF-8" ?>
<!DOCTYPE svg PUBLIC "-//W3C//DTD SVG 1.1//EN" "http://www.w3.org/Graphics/SVG/1.1/DTD/svg11.dtd">
<svg width="65pt" height="73pt" viewBox="0 0 65 73" version="1.1" xmlns="http://www.w3.org/2000/svg">
<path fill="#000000" d=" M 0.00 0.00 L 45.01 0.00 C 45.00 2.46 44.99 4.92 44.97 7.38 C 43.99 7.46 43.01 7.55 42.04 7.64 C 42.02 6.09 42.00 4.54 41.99 3.00 C 28.99 3.00 16.00 3.00 3.00 3.00 C 3.00 25.33 3.00 47.67 3.00 70.00 C 15.99 70.00 28.98 70.00 41.96 70.00 C 41.86 66.76 41.43 63.06 44.77 61.29 C 45.08 65.19 45.01 69.10 45.00 73.00 L 0.00 73.00 L 0.00 0.00 Z" />
<path fill="#ffffff" d=" M 45.01 0.00 L 65.00 0.00 L 65.00 73.00 L 45.00 73.00 C 45.01 69.10 45.08 65.19 44.77 61.29 C 41.43 63.06 41.86 66.76 41.96 70.00 C 28.98 70.00 15.99 70.00 3.00 70.00 C 3.00 47.67 3.00 25.33 3.00 3.00 C 16.00 3.00 28.99 3.00 41.99 3.00 C 42.00 4.54 42.02 6.09 42.04 7.64 C 43.01 7.55 43.99 7.46 44.97 7.38 C 44.99 4.92 45.00 2.46 45.01 0.00 Z" />
<path fill="#000000" d=" M 41.03 11.99 C 41.96 11.23 42.67 10.06 43.92 9.80 C 46.89 10.76 49.34 12.76 51.46 14.97 C 52.54 13.89 53.59 12.62 55.31 12.78 C 54.45 14.00 53.46 15.13 52.52 16.29 C 54.56 19.30 57.85 23.10 55.87 26.88 C 52.53 28.23 48.71 26.68 45.34 25.87 C 45.54 29.90 44.76 33.99 45.68 37.96 C 48.22 37.87 50.75 37.85 53.29 37.87 C 53.27 40.53 53.38 43.19 53.22 45.84 C 52.28 47.59 50.33 48.51 49.02 49.97 C 47.34 49.98 45.66 49.99 43.98 49.98 C 41.88 47.78 39.33 45.44 36.02 45.89 C 32.70 45.43 30.12 47.77 28.02 49.98 C 26.34 49.99 24.66 49.98 22.99 49.97 C 21.67 48.52 19.74 47.58 18.77 45.86 C 18.62 43.20 18.73 40.53 18.71 37.87 C 21.33 37.87 23.96 37.83 26.58 37.97 C 28.63 40.19 30.90 42.19 33.32 44.00 C 37.25 43.48 41.94 45.35 45.28 42.64 C 43.73 41.06 42.18 39.48 40.60 37.94 C 41.21 37.94 42.43 37.94 43.04 37.94 C 43.04 37.48 43.04 36.55 43.04 36.09 C 41.50 36.03 39.91 36.29 38.40 35.91 C 32.96 31.48 27.97 26.53 22.63 21.99 C 24.68 21.96 26.72 21.96 28.76 21.96 C 33.66 26.03 38.14 30.57 43.08 34.59 C 43.24 30.91 43.13 27.22 42.94 23.54 C 40.02 20.36 41.05 15.89 41.03 11.99 Z" />
<path fill="#ffffff" d=" M 42.72 11.57 C 45.64 11.65 48.12 13.38 49.98 15.51 C 49.93 17.36 47.62 18.35 47.48 20.31 C 48.96 19.50 50.22 18.37 51.49 17.27 C 53.30 19.93 55.41 22.70 55.13 26.12 C 51.36 26.26 48.59 23.23 46.39 20.55 C 44.42 17.94 42.33 15.04 42.72 11.57 Z" />
<path fill="#000000" d=" M 7.58 19.02 C 11.40 19.56 16.35 17.43 19.24 20.77 C 27.11 28.29 35.70 35.03 43.35 42.79 C 40.33 42.79 37.31 42.74 34.29 42.82 C 29.33 39.13 25.12 34.56 20.31 30.67 C 16.23 26.61 11.54 23.21 7.58 19.02 Z" />
<path fill="#000000" d=" M 7.91 56.06 C 6.93 51.46 11.64 47.14 16.11 47.98 C 19.74 48.58 22.89 52.25 22.08 56.06 C 22.12 58.88 19.68 60.68 17.57 62.08 C 15.85 62.13 14.14 62.13 12.43 62.08 C 10.31 60.68 7.87 58.90 7.91 56.06 Z" />
<path fill="#000000" d=" M 33.38 48.42 C 38.11 46.27 44.14 50.95 43.08 56.10 C 42.73 61.20 35.98 64.06 31.96 60.99 C 27.17 58.14 28.19 50.28 33.38 48.42 Z" />
<path fill="#000000" d=" M 54.42 48.41 C 59.14 46.29 65.09 50.95 64.15 56.06 C 63.73 61.19 56.99 64.09 52.93 60.96 C 48.17 58.09 49.22 50.24 54.42 48.41 Z" />
<path fill="#ffffff" d=" M 12.88 54.93 C 13.56 54.16 14.26 53.41 15.00 52.68 C 15.96 53.58 18.15 55.08 16.39 56.38 C 15.26 58.01 13.03 56.54 12.88 54.93 Z" />
<path fill="#ffffff" d=" M 33.87 55.02 C 34.50 54.16 35.21 53.37 35.98 52.63 C 37.03 53.52 39.09 55.04 37.45 56.44 C 36.31 58.04 34.05 56.66 33.87 55.02 Z" />
<path fill="#ffffff" d=" M 54.92 55.03 C 55.49 54.14 56.18 53.34 56.99 52.64 C 58.02 53.53 60.11 55.04 58.48 56.43 C 57.38 58.02 55.01 56.71 54.92 55.03 Z" />
</svg>
